<svg width="162" height="40" viewBox="0 0 162 40" fill="none" xmlns="http://www.w3.org/2000/svg">
<path fill-rule="evenodd" clip-rule="evenodd" d="M85.7196 3.82078H87.1959C87.0861 1.96694 85.8172 1.11133 84.048 1.11133C82.4741 1.11133 80.9124 1.91941 80.9368 3.54745C80.9612 5.21115 82.4375 5.71026 83.8772 6.09053C83.9626 6.11338 84.0472 6.13553 84.1307 6.15737L84.1307 6.15737L84.1307 6.15738L84.1307 6.15738L84.1307 6.15739L84.1307 6.15739C85.1319 6.41948 85.9636 6.63719 85.9636 7.49279C85.9636 8.37217 85.1095 8.79998 84.1334 8.79998C82.9988 8.79998 82.1691 8.18204 82.1325 7.04122H80.6196C80.7172 9.06142 82.2057 10.0002 84.1334 10.0002C85.7318 10.0002 87.4277 9.2159 87.4277 7.48091C87.4277 5.72316 85.9453 5.33153 84.5128 4.9531L84.3653 4.91406C83.2306 4.61697 82.4131 4.29612 82.4131 3.53557C82.4131 2.66807 83.1696 2.31157 84.0236 2.31157C85.0729 2.31157 85.6098 2.81067 85.7196 3.82078ZM69.7138 7.1957H71.1779C70.7753 8.77621 69.3356 9.95268 67.1516 9.95268C64.4308 9.95268 62.7227 8.07508 62.7227 5.55577C62.7227 3.06023 64.443 1.15886 67.1638 1.15886C69.36 1.15886 70.6411 2.26403 71.1779 3.91584H69.7138C69.2502 2.89386 68.4937 2.37098 67.1638 2.37098C65.3093 2.37098 64.199 3.78513 64.199 5.55577C64.199 7.32642 65.3093 8.74056 67.1638 8.74056C68.5913 8.74056 69.36 8.12262 69.7138 7.1957ZM80.132 9.7982H78.5825L77.7162 7.49279H74.0681L73.2019 9.7982H71.6645L74.9832 1.31335H76.8255L80.132 9.7982ZM75.9105 2.58489H75.8739L74.4952 6.34009H77.2892L75.9105 2.58489ZM88.7911 1.31335H91.9023C93.7935 1.31335 94.9892 2.4304 94.9892 3.92773C94.9892 5.4607 93.6959 6.61341 91.9023 6.61341H90.2674V9.7982H88.7911V1.31335ZM90.2674 5.41317H91.7803C92.8784 5.41317 93.5128 4.89029 93.5128 3.93961C93.5128 2.98893 92.8784 2.51359 91.7803 2.51359H90.2674V5.41317ZM97.4998 8.58608V6.10242H101.38V4.90218H97.4998V2.52547H101.636V1.31335H96.0235V9.7982H101.673V8.58608H97.4998ZM104.613 9.7982H103.137V1.31335H106.455C108.444 1.31335 109.53 2.33533 109.53 3.72571C109.53 4.81899 108.81 5.71026 107.785 5.95981C108.53 6.19748 108.81 6.82731 109.115 7.81365C109.147 7.90918 109.177 8.00089 109.205 8.08935C109.409 8.71614 109.56 9.1795 109.945 9.67936V9.7982H108.359C108.073 9.43575 107.929 8.94176 107.782 8.43922C107.722 8.23327 107.661 8.02589 107.59 7.82553C107.309 7.04122 106.968 6.47081 105.906 6.47081H104.613V9.7982ZM104.613 2.48982V5.28245H106.382C107.48 5.28245 108.066 4.71204 108.066 3.83266C108.066 3.084 107.578 2.48982 106.333 2.48982H104.613ZM113.402 12.778V38.387H117.592V12.778H113.402ZM108.711 26.9813V34.1188C108.711 35.5176 108.783 37.4186 109.072 38.387H104.81C104.665 37.6338 104.629 36.773 104.629 35.9122V35.3741H104.593C103.943 37.0599 102.245 38.8532 98.6686 38.8532C94.4782 38.8532 92.094 36.2708 92.094 33.3297C92.094 28.5513 97.1094 27.9038 100.104 27.5172L100.104 27.5172L100.105 27.5171C100.481 27.4685 100.826 27.4239 101.125 27.3758C103.582 26.9813 104.593 26.6226 104.593 25.0803C104.593 23.5381 103.256 22.5338 100.981 22.5338C98.9576 22.5338 97.5126 23.6457 97.4043 25.5107H93.3222C93.5028 22.4621 95.9232 19.3058 100.908 19.3058C107.122 19.3058 108.711 23.0001 108.711 26.9813ZM99.7162 35.8046C102.281 35.8046 104.701 33.9753 104.701 29.8506V27.9138C104.268 29.0257 103.22 29.8865 100.15 30.4245C97.5849 30.8908 96.2483 31.6081 96.2483 33.258C96.2483 34.7285 97.5487 35.8046 99.7162 35.8046ZM72.9458 38.387H68.0691L62.7227 19.8438H67.0214L69.4779 29.5637C69.7405 30.6066 69.9236 31.5179 70.1154 32.473L70.1154 32.473C70.2403 33.0946 70.3689 33.7346 70.5255 34.4416H70.5616C70.774 33.5981 70.9344 32.8234 71.098 32.0332L71.098 32.0331C71.2682 31.2107 71.442 30.3714 71.6815 29.4202L74.1018 19.8438H79.0508L81.4712 29.4561C81.6886 30.3198 81.8953 31.2587 82.103 32.2023L82.103 32.2025L82.1031 32.2026C82.2748 32.983 82.4473 33.7665 82.6272 34.5133H82.6633C82.8365 33.7739 83.0097 32.9685 83.1868 32.1446L83.1868 32.1446L83.1869 32.1445L83.1869 32.1442L83.1869 32.1441C83.3793 31.2497 83.5763 30.3335 83.7831 29.4561L86.1312 19.8438H90.43L85.0475 38.387H80.1707L77.642 28.7029C77.2446 27.1606 76.8473 25.5107 76.5944 24.1478H76.486C76.1609 25.6901 75.8719 27.053 75.4745 28.667L72.9458 38.387ZM122.583 38.387V12.778H126.773V38.387H122.583ZM149.031 29.4561C148.995 24.2195 146.394 19.3416 140.036 19.3416C134.581 19.3416 130.607 23.4305 130.607 29.0616C130.607 34.9079 134.436 38.8891 140.036 38.8891C144.443 38.8891 147.658 36.6654 148.778 32.8993H144.624C143.937 34.7644 142.167 35.5535 140.036 35.5535C137.11 35.5535 134.942 33.6167 134.653 30.2452H149.031V29.4561ZM134.725 27.2324C135.159 24.3989 137.11 22.5697 140 22.5697C142.89 22.5697 144.587 24.3271 144.876 27.2324H134.725ZM161.612 19.8438V23.0718H157.963V32.0027C157.963 33.8677 158.505 35.1948 160.094 35.1948H161.214V38.387H159.227C155.145 38.387 153.809 35.7687 153.809 32.5048V23.0718H150.919V19.8438H153.809V15.6832L157.818 13.6747H157.963V19.8438H161.612Z" fill="white"/>
<g clip-path="url(#clip0_1106_5425)">
<path fill-rule="evenodd" clip-rule="evenodd" d="M4.94444 1.11133C2.48985 1.11133 0.5 3.10117 0.5 5.55577V34.4447C0.5 36.8993 2.48985 38.8891 4.94444 38.8891H47.1667C49.6213 38.8891 51.6111 36.8993 51.6111 34.4447V5.55577C51.6111 3.10117 49.6213 1.11133 47.1667 1.11133H4.94444ZM34.2565 6.19131C33.4092 5.34393 32.0353 5.34393 31.1879 6.19131L18.9133 18.4659C18.0659 19.3133 18.0659 20.6872 18.9133 21.5345L31.1879 33.8091C32.0353 34.6565 33.4092 34.6565 34.2565 33.8091L41.161 26.9047C41.5847 26.481 41.5847 25.794 41.161 25.3703L38.0924 22.3017C37.6687 21.878 36.9817 21.878 36.558 22.3017L33.873 24.9868C33.2374 25.6223 32.207 25.6223 31.5715 24.9868L27.7357 21.151C27.1001 20.5154 27.1001 19.485 27.7357 18.8495L31.5715 15.0137C32.207 14.3781 33.2374 14.3781 33.873 15.0137L36.558 17.6987C36.9817 18.1224 37.6687 18.1224 38.0924 17.6987L41.161 14.6301C41.5847 14.2064 41.5847 13.5195 41.161 13.0958L34.2565 6.19131Z" fill="white"/>
</g>
<defs>
<clipPath id="clip0_1106_5425">
<rect width="51.1111" height="40" fill="white" transform="translate(0.5)"/>
</clipPath>
</defs>
</svg>
