<svg width="40" height="40" viewBox="0 0 40 40" fill="none" xmlns="http://www.w3.org/2000/svg">
<g clip-path="url(#clip0_12_44)">
<path d="M20 39.1667C30.5854 39.1667 39.1666 30.5855 39.1666 20C39.1666 9.41455 30.5854 0.833344 20 0.833344C9.41452 0.833344 0.833313 9.41455 0.833313 20C0.833313 30.5855 9.41452 39.1667 20 39.1667Z" fill="#FF3D3D"/>
<path d="M29.0417 28.1083C28.3333 28.1083 27.7333 28.6 27.5833 29.2833L21.9583 29.0167C21.9833 28.9083 21.9917 28.8 21.9917 28.6917C21.9917 28.5 21.9583 28.3083 21.9083 28.1167L23.9583 26.9417C24.4583 27.5667 25.375 27.6917 26.025 27.2167C26.675 26.7417 26.85 25.8417 26.4083 25.1667C25.9667 24.4917 25.0833 24.275 24.3833 24.675C23.6833 25.075 23.4167 25.95 23.7833 26.6667L21.8 27.8167C21.325 26.8167 20.1583 26.3667 19.1417 26.7917C18.125 27.2083 17.6083 28.3583 17.975 29.3917L14.2917 30.2833C14.2667 29.7833 14.0583 29.3083 13.7 28.9417L14.3667 28.0167C15.1167 28.275 15.9417 27.9 16.2417 27.1583C16.5417 26.4167 16.2083 25.575 15.4917 25.2417C14.775 24.9 13.9083 25.1917 13.5333 25.8833C13.1583 26.5833 13.3917 27.4583 14.0667 27.875L13.4583 28.725C13.0333 28.4 12.4833 28.2667 11.95 28.325L11.3167 24.7167C12.1083 24.5417 12.7167 23.925 12.8917 23.1417C13.0667 22.35 12.7667 21.5333 12.1167 21.05C11.475 20.5583 10.6083 20.4917 9.89999 20.8667L8.29999 17.75C8.64166 17.575 8.92499 17.3083 9.12499 16.9917L10.45 17.3417C10.4417 17.4167 10.425 17.4833 10.425 17.5583C10.425 18.3333 11.0167 18.9833 11.7833 19.0583C12.5583 19.1333 13.2583 18.6083 13.4 17.8333C13.5417 17.0583 13.075 16.325 12.325 16.1167C11.575 15.9 10.7917 16.3 10.5167 17.025L9.26666 16.6917C9.44166 16.2833 9.46666 15.8333 9.36666 15.4083L13.0667 13.7083C13.75 14.5667 14.9917 14.75 15.8917 14.1083C16.7917 13.4667 17.025 12.2333 16.425 11.3083L18.7833 9.00834C19.075 9.19167 19.4083 9.30833 19.7333 9.33333V10.35C18.95 10.4333 18.3583 11.125 18.4083 11.9167C18.45 12.7083 19.1083 13.3333 19.9 13.3333C20.6917 13.3333 21.35 12.7083 21.3917 11.9167C21.4333 11.125 20.8583 10.4417 20.0667 10.35V9.33333C20.3667 9.30833 20.6417 9.225 20.9 9.08333L23.4833 12.0333C22.8833 12.825 22.925 13.9333 23.5833 14.6667C24.25 15.4083 25.3417 15.575 26.2 15.0667C27.0583 14.55 27.425 13.5167 27.0917 12.5833L27.8917 12.1333C28.4083 12.7333 29.2917 12.8417 29.925 12.3583C30.5583 11.8833 30.7083 11 30.2667 10.3417C29.825 9.69167 28.95 9.48333 28.275 9.89167C27.6 10.3 27.35 11.1583 27.7167 11.8667L26.9583 12.2917C26.65 11.725 26.0917 11.3417 25.4583 11.2417C24.825 11.1417 24.175 11.35 23.7083 11.8L21.1833 8.91667C21.4333 8.725 21.6333 8.46667 21.775 8.19167L23.9917 8.55834C24.1667 9.33334 24.9167 9.83333 25.6833 9.69167C26.4667 9.56667 27 8.84167 26.9167 8.06667C26.8333 7.28333 26.1417 6.69167 25.3667 6.74167C24.575 6.78333 23.9667 7.425 23.95 8.21667L21.8917 7.875C22.1833 6.89167 21.7083 5.84167 20.775 5.4C19.8417 4.95833 18.7417 5.28333 18.175 6.14167C17.6083 7 17.7583 8.14167 18.525 8.83333L16.2333 11.075C15.8833 10.6667 15.375 10.4083 14.8417 10.3667V8.8C15.625 8.71667 16.2167 8.025 16.1667 7.23333C16.125 6.44167 15.4833 5.83333 14.6917 5.83333C13.9 5.83333 13.2417 6.45833 13.2 7.25C13.1583 8.04167 13.7333 8.725 14.525 8.81667V10.3667C13.8167 10.4167 13.1833 10.8417 12.85 11.4583C12.5167 12.0917 12.525 12.8417 12.8833 13.4583L9.28332 15.1083C9.15832 14.8 8.94999 14.5333 8.69166 14.3167L10.0917 11.7917C10.2167 11.825 10.3417 11.8417 10.4667 11.8417C11.225 11.8417 11.8583 11.275 11.9583 10.525C12.0583 9.775 11.5583 9.075 10.8333 8.9C10.0917 8.71667 9.34166 9.11667 9.07499 9.825C8.80832 10.5333 9.11666 11.325 9.78332 11.675L8.42499 14.1417C7.59999 13.65 6.55832 13.7917 5.88332 14.475C5.21666 15.1583 5.09999 16.2 5.60832 17.0167C6.10832 17.8333 7.09999 18.1917 8.00832 17.9083L9.62499 21.0667C9.21666 21.3667 8.92499 21.8167 8.83332 22.3083L7.65832 21.9667C7.69166 21.85 7.69999 21.7167 7.69999 21.6C7.69999 20.8417 7.13332 20.2083 6.38332 20.125C5.63332 20.0417 4.93332 20.525 4.75832 21.2583C4.57499 22 4.98332 22.75 5.69999 23.0083C6.40832 23.2667 7.19999 22.9583 7.54166 22.2833L8.79166 22.65V22.75C8.79166 23.4583 9.14166 24.1083 9.74166 24.4833L8.94166 25.5333C8.34999 25.0083 7.44999 25.0417 6.89166 25.6083C6.33332 26.175 6.31666 27.0667 6.84999 27.6583C7.38332 28.25 8.27499 28.3083 8.89999 27.8083C9.52499 27.3083 9.62499 26.4167 9.16666 25.775L10.0333 24.6417C10.2917 24.7583 10.5833 24.8167 10.8667 24.8167C10.9083 24.8167 10.95 24.8167 10.9917 24.8083L11.6333 28.4417C10.775 28.7 10.175 29.4833 10.1417 30.3667C10.1167 31.2667 10.675 32.0667 11.525 32.3667C12.375 32.6667 13.3167 32.3917 13.8583 31.6667L16.8583 33.0083C16.8333 33.1167 16.8167 33.2333 16.8167 33.3417C16.8167 34.1 17.3833 34.7417 18.1417 34.8333C18.9 34.9167 19.6 34.425 19.7667 33.6833C19.9417 32.9417 19.5167 32.1917 18.8 31.9333C18.0833 31.675 17.2917 32.0083 16.9583 32.6917L14.0333 31.3833C14.1583 31.15 14.25 30.8917 14.2667 30.625L18.0833 29.6917C18.375 30.225 18.8833 30.6 19.4833 30.7333C20.0833 30.85 20.7083 30.7 21.175 30.325L22.6 31.5583C22.2667 32.2833 22.5583 33.1417 23.2667 33.5083C23.975 33.8833 24.8417 33.6333 25.25 32.95C25.6583 32.2667 25.4667 31.3833 24.8083 30.9333C24.1417 30.4833 23.2583 30.6333 22.775 31.2667L21.4167 30.1C21.6167 29.8833 21.7667 29.6167 21.8667 29.3417L27.5333 29.6167C27.5417 30.4417 28.2083 31.0917 29.0333 31.0917C29.8583 31.0917 30.525 30.4167 30.5083 29.6C30.5083 28.8 29.8417 28.1333 29.0167 28.1333L29.0417 28.1083Z" fill="white"/>
</g>
<defs>
<clipPath id="clip0_12_44">
<rect width="40" height="40" fill="white"/>
</clipPath>
</defs>
</svg>
